<svg xmlns="http://www.w3.org/2000/svg" viewBox="0 0 524 120"><title>reviews</title><polygon points="52 0 63 41 104 30 74 60 104 90 63 79 52 120 41 79 0 90 30 60 0 30 41 41 52 0" fill="red"/><polygon points="332 0 343 41 384 30 354 60 384 90 343 79 332 120 321 79 280 90 310 60 280 30 321 41 332 0" fill="#f4f4f4"/><polygon points="472 0 483 41 524 30 494 60 524 90 483 79 472 120 461 79 420 90 450 60 420 30 461 41 472 0" fill="#f4f4f4"/><polygon points="192 0 181 41 140 30 170 60 140 90 181 79 192 120 192 0" fill="red"/><polygon points="192 120 203 79 244 90 214 60 244 30 203 41 192 0 192 120" fill="#f4f4f4"/></svg>