<svg xmlns="http://www.w3.org/2000/svg" viewBox="0 0 524 120"><title>reviews</title><polygon points="52 0 63 41 104 30 74 60 104 90 63 79 52 120 41 79 0 90 30 60 0 30 41 41 52 0" fill="red"/><polygon points="192 0 203 41 244 30 214 60 244 90 203 79 192 120 181 79 140 90 170 60 140 30 181 41 192 0" fill="red"/><polygon points="332 0 343 41 384 30 354 60 384 90 343 79 332 120 321 79 280 90 310 60 280 30 321 41 332 0" fill="red"/><polygon points="472 0 461 41 420 30 450 60 420 90 461 79 472 120 472 0" fill="red"/><polygon points="472 120 483 79 524 90 494 60 524 30 483 41 472 0 472 120" fill="#f4f4f4"/></svg>